# xmcd
#
# Track frame offsets: 
#        150
#        11568
#        24305
#        35813
#        50226
#        64198
#        80185
#        94037
#        108330
#        122877
#        143662
#        159067
#        174319
#        186809
#        199705
#        214557
#        226462
#        238475
#        251884
#        266097
#        280105
#        294565
#        307575
#        321382
#
# Disc length: 4466 seconds
#
# Revision: 1
# Processed by: cddbd v1.5.2PL0 Copyright (c) Steve Scherf et al.
# Submitted via: ExactAudioCopy v0.95a5
#
DISCID=5e117018
DTITLE=Various Artist - The Birth of the Modern Big Bands
DYEAR=2006
DGENRE=Big Band
TTITLE0=Dizzy Gillespie - Our Delight
TTITLE1=Dizzy Gillespie - Things to Come
TTITLE2=Oscar Pettiford - Something for You
TTITLE3=Boyd Raeburn - A Night in Tunisia
TTITLE4=Earl Hines - At the El Grotto
TTITLE5=Billy Eckstine - Air Mail Special
TTITLE6=Boyd Raeburn - Dalvatore Sally
TTITLE7=Gerald Wilson - Groovin' High
TTITLE8=Gene Krupa - Disc Jockey Jump
TTITLE9=Claude Thornhill - La Paloma
TTITLE10=Claude Thornhill - Yardbird Suite
TTITLE11=Stan Kenton - Intermission Riff
TTITLE12=Stan Kenton - Collaboration
TTITLE13=Woody Herman - Keen and Peachy
TTITLE14=Woody Herman - Four Brothers
TTITLE15=Roy Porter - Little Wig
TTITLE16=Elliot Lawrence - Elevation
TTITLE17=Buddy DeFranco - A Bird in Igor's Yard
TTITLE18=Chubby Jackson - Godchild
TTITLE19=Lional Hampton - Hawk's Nest
TTITLE20=Benny Goodman - Undercurrent Blues
TTITLE21=Charlie Barnet - Overtime
TTITLE22=Count Basie - Normania (Blee Blop Blues)
TTITLE23=Duke Ellington - Boogie Bop Blues
EXTD=YEAR: 2006
EXTT0=
EXTT1=
EXTT2=
EXTT3=
EXTT4=
EXTT5=
EXTT6=
EXTT7=
EXTT8=
EXTT9=
EXTT10=
EXTT11=
EXTT12=
EXTT13=
EXTT14=
EXTT15=
EXTT16=
EXTT17=
EXTT18=
EXTT19=
EXTT20=
EXTT21=
EXTT22=
EXTT23=
PLAYORDER=
